Coordinates
version=1
nRows=29
nColumns=24
inDegrees=yes

Units are S.I. units (second, meters, Newtons, ...)
Angles are in degrees.

endheader
time	pelvis_tilt	pelvis_list	pelvis_rotation	pelvis_tx	pelvis_ty	pelvis_tz	hip_flexion_r	hip_adduction_r	hip_rotation_r	knee_angle_r	ankle_angle_r	subtalar_angle_r	mtp_angle_r	hip_flexion_l	hip_adduction_l	hip_rotation_l	knee_angle_l	ankle_angle_l	subtalar_angle_l	mtp_angle_l	lumbar_extension	lumbar_bending	lumbar_rotation
      5.72000000	      0.86807554	      4.74916092	     15.79146621	      1.78849162	      0.65632825	     -0.09328962	     19.63131439	     -5.68335488	    -12.73482487	     -2.17601411	      1.29589921	     -9.33076284	      0.00000000	    -18.23591030	      3.25110401	     13.67347656	    -22.81827046	     13.08867632	      4.96111940	      0.00000000	    -13.17620575	    -11.05056996	    -11.06581923
      5.73000000	      0.92190084	      3.83689968	     15.18523214	      1.80277437	      0.65585101	     -0.09201687	     19.90682580	     -4.28598434	    -10.81756995	     -4.19556918	     -0.96828148	    -13.18103237	      0.00000000	    -17.65740763	      2.33268811	     12.18347296	    -25.21639717	     10.38823461	      4.96958091	      0.00000000	    -12.64684006	    -10.16108894	    -10.61536346
      5.74000000	      1.10016762	      2.87168015	     14.42670351	      1.81677938	      0.65583714	     -0.09052282	     20.15616107	     -2.74854047	     -8.70094756	     -6.42405558	     -2.85182698	    -16.60408288	      0.00000000	    -16.96060119	      1.38267228	     10.57198058	    -27.79494950	      6.85712464	      4.62368877	      0.00000000	    -12.34288251	     -9.18522226	    -10.12443188
      5.75000000	      1.43967662	      1.89170702	     13.58856948	      1.83043809	      0.65635696	     -0.08890926	     20.28029578	     -1.11582935	     -6.73201674	     -8.78686074	     -4.08235906	    -19.10291686	      0.00000000	    -16.15942204	      0.40355218	      8.92376054	    -30.55494215	      2.41952625	      3.89950584	      0.00000000	    -12.33943744	     -8.14124630	     -9.77233471
      5.76000000	      1.85515137	      0.96116201	     12.77418246	      1.84366983	      0.65728666	     -0.08730077	     20.24269498	      0.50569632	     -5.00724416	    -11.10563837	     -4.16006231	    -20.56779796	      0.00000000	    -15.10002388	     -0.53806827	      7.40054729	    -33.60789709	     -2.85629907	      2.86353963	      0.00000000	    -12.58948544	     -7.11193837	     -9.60840454
      5.77000000	      2.27891111	      0.09693336	     12.09369772	      1.85646411	      0.65847396	     -0.08583605	     19.96181904	      2.05269936	     -3.57340034	    -13.08075164	     -3.71180600	    -21.67472512	      0.00000000	    -13.67095803	     -1.44029158	      6.11825650	    -37.00552831	     -8.77112421	      1.55784620	      0.00000000	    -13.00797962	     -6.12032021	     -9.69380102
      5.78000000	      2.63395470	     -0.70089007	     11.58447387	      1.86880266	      0.65975764	     -0.08458413	     19.44758967	      3.48213115	     -2.42792853	    -14.55238710	     -2.76473222	    -22.39939450	      0.00000000	    -11.79328127	     -2.27478381	      5.15574569	    -40.74398088	    -14.97670359	     -0.09944494	      0.00000000	    -13.49165460	     -5.17228500	    -10.05622059
      5.79000000	      2.87482449	     -1.45120140	     11.23661709	      1.88067904	      0.66101728	     -0.08353006	     18.74266757	      4.78332616	     -1.61947661	    -15.44204886	     -1.76677664	    -22.98332637	      0.00000000	     -9.45390159	     -3.04892269	      4.46674953	    -44.75674744	    -21.00108081	     -2.01469024	      0.00000000	    -13.96485532	     -4.27468542	    -10.54010266
      5.80000000	      3.00698703	     -2.18617142	     10.94653158	      1.89215351	      0.66220472	     -0.08257267	     17.87818453	      6.00900202	     -1.02756410	    -15.78495242	     -0.72870936	    -23.38674293	      0.00000000	     -6.75717378	     -3.76240810	      3.94718771	    -48.90478682	    -26.19722078	     -4.18712315	      0.00000000	    -14.38527361	     -3.42050778	    -10.92913314
      5.81000000	      3.05553606	     -2.90115508	     10.58378895	      1.90328297	      0.66336287	     -0.08158420	     16.87465922	      7.17099003	     -0.60871065	    -15.65698698	      0.31686558	    -23.51705824	      0.00000000	     -3.85318400	     -4.38718068	      3.47727712	    -53.01479874	    -29.95939570	     -6.57308316	      0.00000000	    -14.76585942	     -2.66379396	    -11.04528980
      5.82000000	      3.04635497	     -3.53240564	     10.06248335	      1.91416985	      0.66460606	     -0.08053052	     15.74697433	      8.20700162	     -0.31985784	    -15.20000618	      1.41170688	    -23.18407861	      0.00000000	     -0.90713257	     -4.83540238	      3.00036382	    -56.88844617	    -31.87711814	     -9.09819046	      0.00000000	    -15.10343251	     -2.08998955	    -10.77495610
      5.83000000	      2.97929128	     -4.04590509	      9.32807079	      1.92487746	      0.66599484	     -0.07938542	     14.54994149	      9.06901153	     -0.18965822	    -14.56244482	      2.72611681	    -22.14767204	      0.00000000	      2.00178338	     -5.08860698	      2.43271575	    -60.39904022	    -31.69928155	    -11.60314850	      0.00000000	    -15.38350658	     -1.74741789	    -10.14274056
      5.84000000	      2.89945362	     -4.41704944	      8.40100391	      1.93547787	      0.66759221	     -0.07818999	     13.29691632	      9.70741467	     -0.39308999	    -13.89082241	      4.53949190	    -20.15808203	      0.00000000	      4.78927574	     -5.15440098	      1.79745834	    -63.46665622	    -29.33347925	    -13.51704997	      0.00000000	    -15.63684302	     -1.64859390	     -9.10505909
      5.85000000	      2.87128971	     -4.61088488	      7.33431366	      1.94605325	      0.66945927	     -0.07697972	     11.85706202	     10.11847547	     -0.58737414	    -13.08806717	      6.23324150	    -17.91097485	      0.00000000	      7.35452379	     -5.03819342	      1.09984830	    -65.97273386	    -25.59821567	    -15.14317376	      0.00000000	    -15.91781141	     -1.79229606	     -7.92199511
      5.86000000	      2.71919646	     -4.61223174	      6.15942679	      1.95662048	      0.67135700	     -0.07573828	     10.46629191	     10.26953337	     -0.67870538	    -12.22784144	      7.61159655	    -15.83567601	      0.00000000	      9.92069321	     -4.74322618	      0.37494077	    -67.95243025	    -20.87232129	    -15.99096166	      0.00000000	    -16.00190550	     -2.20949657	     -6.63333256
      5.87000000	      2.57418643	     -4.47050107	      4.96524837	      1.96722116	      0.67331352	     -0.07456034	      9.04113411	     10.20767142	     -0.85140874	    -11.37861317	      9.10818817	    -13.40775692	      0.00000000	     12.35816967	     -4.35671840	     -0.32480746	    -69.36938336	    -16.18961125	    -16.66274726	      0.00000000	    -16.02425427	     -2.77308332	     -5.37442302
      5.88000000	      2.38417068	     -4.20393110	      3.78313740	      1.97785623	      0.67516832	     -0.07344017	      7.64778392	      9.97536413	     -0.90463905	    -10.52249161	     10.43162998	    -11.15309996	      0.00000000	     14.74357183	     -3.91376164	     -0.98409950	    -70.26863072	    -12.02923334	    -17.36259433	      0.00000000	    -15.93146234	     -3.45402080	     -4.18683318
      5.89000000	      2.17030153	     -3.84331159	      2.64942048	      1.98851192	      0.67684948	     -0.07238869	      6.27877655	      9.62562365	     -0.73988422	     -9.65311410	     11.53667348	     -9.26287182	      0.00000000	     17.06246441	     -3.46018893	     -1.58827072	    -70.68026325	     -8.62039623	    -18.31528619	      0.00000000	    -15.76111139	     -4.19778544	     -3.10205445
      5.90000000	      1.94175981	     -3.43118952	      1.57353744	      1.99916748	      0.67828951	     -0.07141666	      4.94429365	      9.21370414	     -0.32550865	     -8.78074122	     12.42010153	     -7.82003530	      0.00000000	     19.30057440	     -3.03599166	     -2.11919520	    -70.63053162	     -6.01481341	    -19.69279211	      0.00000000	    -15.54379504	     -4.94642443	     -2.12554995
      5.91000000	      1.77303092	     -3.03627429	      0.55191732	      2.00980811	      0.67949510	     -0.07049301	      3.54216759	      8.82960958	      0.47479145	     -7.84839725	     12.97345810	     -7.10300435	      0.00000000	     21.37011786	     -2.72949857	     -2.57559879	    -70.15126126	     -3.99416036	    -21.37715024	      0.00000000	    -15.38940411	     -5.62891506	     -1.18929070
      5.92000000	      1.53599700	     -2.63369616	     -0.41340751	      2.02041923	      0.68035774	     -0.06965379	      2.29019082	      8.41310840	      1.25574281	     -7.00452553	     13.56568181	     -6.33402680	      0.00000000	     23.38839885	     -2.48815037	     -2.94717157	    -69.22302538	     -2.64366853	    -23.47882083	      0.00000000	    -15.15955369	     -6.27297833	     -0.40676101
      5.93000000	      1.36005886	     -2.29413386	     -1.30531535	      2.03098056	      0.68094603	     -0.06892004	      1.06000797	      8.04712203	      1.97129490	     -6.25716122	     14.13508320	     -5.86292817	      0.00000000	     25.19737309	     -2.35886134	     -3.17722980	    -67.84530404	     -1.86009994	    -26.04525219	      0.00000000	    -15.03484452	     -6.80415002	      0.39304038
      5.94000000	      1.22244029	     -2.03227016	     -2.19632881	      2.04152538	      0.68125907	     -0.06819016	     -0.17237911	      7.75030572	      2.78335381	     -5.54704409	     14.62931953	     -5.55909519	      0.00000000	     26.79103179	     -2.41059152	     -3.35780704	    -66.02227297	     -1.42518555	    -28.60092616	      0.00000000	    -14.97317117	     -7.23576469	      1.17234409
      5.95000000	      1.12026165	     -1.86059445	     -3.08618742	      2.05205245	      0.68130052	     -0.06748461	     -1.39131067	      7.52573659	      3.60520784	     -4.91399825	     15.09066471	     -5.35663063	      0.00000000	     28.15062247	     -2.64061217	     -3.47998057	    -63.74713327	     -1.23802150	    -31.00374475	      0.00000000	    -14.97556090	     -7.55431367	      1.95482915
      5.96000000	      1.05212856	     -1.78996527	     -3.98334571	      2.06258894	      0.68108751	     -0.06678819	     -2.60052989	      7.38154320	      4.40476465	     -4.37113771	     15.55270472	     -5.22030001	      0.00000000	     29.25069946	     -3.05390346	     -3.55143922	    -61.01733319	     -1.11393182	    -32.97083497	      0.00000000	    -15.03248101	     -7.76499008	      2.76859319
      5.97000000	      0.94500809	     -1.87722742	     -4.91346135	      2.07316231	      0.68055489	     -0.06604675	     -3.71726986	      7.38215784	      5.12189314	     -3.95750038	     16.10254364	     -5.00390684	      0.00000000	     30.16261850	     -3.73733440	     -3.59610504	    -57.89471588	     -0.55453236	    -33.88034150	      0.00000000	    -15.04114699	     -7.80914260	      3.63259509
      5.98000000	      0.95846587	     -1.95522026	     -5.82779597	      2.08384154	      0.67995753	     -0.06541282	     -4.97136807	      7.31975737	      5.88094774	     -3.54843620	     16.55841596	     -4.88287693	      0.00000000	     30.61772273	     -4.36894336	     -3.50772322	    -54.18090998	     -0.47963768	    -34.58420013	      0.00000000	    -15.18988858	     -7.86023223	      4.49929826
      5.99000000	      0.91963761	     -2.15643518	     -6.76125718	      2.09470818	      0.67908989	     -0.06476328	     -6.17129699	      7.35886606	      6.51818992	     -3.19183384	     17.05536558	     -4.74163039	      0.00000000	     30.82184945	     -5.17955895	     -3.38733626	    -50.01267793	     -0.28438386	    -34.55370617	      0.00000000	    -15.23340486	     -7.77415295	      5.33505125
      6.00000000	      1.06372540	     -2.38104377	     -7.67724418	      2.10583494	      0.67822703	     -0.06418235	     -7.60038857	      7.35628760	      7.12692940	     -2.82277634	     17.51972260	     -4.62447934	      0.00000000	     30.45943738	     -5.95028925	     -3.14383104	    -45.31420269	     -0.09234354	    -33.82046307	      0.00000000	    -15.46046497	     -7.68903492	      6.15139791
